<mxfile host="Electron" agent="Mozilla/5.0 (Windows NT 10.0; Win64; x64) AppleWebKit/537.36 (KHTML, like Gecko) draw.io/24.1.0 Chrome/120.0.6099.109 Electron/28.1.0 Safari/537.36" modified="2024-09-02T09:38:42.469Z" etag="TCvpVqG0gbAXPak655Cr" version="24.1.0" type="device">
  <diagram name="Page-1" id="tNM7B1WFuLnsa785HWwi">
    <mxGraphModel dx="2261" dy="844" grid="1" gridSize="10" guides="1" tooltips="1" connect="1" arrows="1" fold="1" page="1" pageScale="1" pageWidth="827" pageHeight="1169" background="#FFFFFF" math="0" shadow="0">
      <root>
        <mxCell id="0" />
        <mxCell id="1" parent="0" />
        <mxCell id="Tul62sCrl6Ou0KDZPTRD-2" value="" style="rounded=0;whiteSpace=wrap;html=1;" parent="1" vertex="1">
          <mxGeometry x="-820" y="150" width="810" height="810" as="geometry" />
        </mxCell>
        <mxCell id="BPXdS7D87Gxcf3m_geHE-28" value="User Management Module" style="text;html=1;align=center;verticalAlign=middle;whiteSpace=wrap;rounded=0;fontStyle=1;fontSize=17;" parent="1" vertex="1">
          <mxGeometry x="-548" y="150" width="270" height="60" as="geometry" />
        </mxCell>
        <mxCell id="BPXdS7D87Gxcf3m_geHE-29" value="" style="rounded=0;whiteSpace=wrap;html=1;" parent="1" vertex="1">
          <mxGeometry x="-742" y="210" width="657" height="720" as="geometry" />
        </mxCell>
        <mxCell id="BPXdS7D87Gxcf3m_geHE-30" value="System Boundary" style="text;html=1;align=center;verticalAlign=middle;whiteSpace=wrap;rounded=0;" parent="1" vertex="1">
          <mxGeometry x="-475" y="210" width="120" height="30" as="geometry" />
        </mxCell>
        <mxCell id="BPXdS7D87Gxcf3m_geHE-40" style="edgeStyle=orthogonalEdgeStyle;rounded=0;orthogonalLoop=1;jettySize=auto;html=1;entryX=0;entryY=0.5;entryDx=0;entryDy=0;curved=0;" parent="1" source="BPXdS7D87Gxcf3m_geHE-31" target="BPXdS7D87Gxcf3m_geHE-37" edge="1">
          <mxGeometry relative="1" as="geometry">
            <Array as="points">
              <mxPoint x="-680" y="470" />
              <mxPoint x="-680" y="360" />
            </Array>
          </mxGeometry>
        </mxCell>
        <mxCell id="n1WuSb7ik74eGK0oQWNN-19" style="edgeStyle=orthogonalEdgeStyle;rounded=0;orthogonalLoop=1;jettySize=auto;html=1;entryX=0;entryY=0.5;entryDx=0;entryDy=0;curved=0;" parent="1" source="BPXdS7D87Gxcf3m_geHE-31" target="BPXdS7D87Gxcf3m_geHE-42" edge="1">
          <mxGeometry relative="1" as="geometry">
            <Array as="points">
              <mxPoint x="-680" y="470" />
              <mxPoint x="-680" y="410" />
            </Array>
          </mxGeometry>
        </mxCell>
        <mxCell id="n1WuSb7ik74eGK0oQWNN-27" style="edgeStyle=orthogonalEdgeStyle;rounded=0;orthogonalLoop=1;jettySize=auto;html=1;entryX=0;entryY=0.5;entryDx=0;entryDy=0;" parent="1" source="BPXdS7D87Gxcf3m_geHE-31" target="n1WuSb7ik74eGK0oQWNN-26" edge="1">
          <mxGeometry relative="1" as="geometry">
            <Array as="points">
              <mxPoint x="-680" y="470" />
              <mxPoint x="-680" y="310" />
            </Array>
          </mxGeometry>
        </mxCell>
        <mxCell id="Tul62sCrl6Ou0KDZPTRD-4" style="edgeStyle=orthogonalEdgeStyle;rounded=0;orthogonalLoop=1;jettySize=auto;html=1;entryX=0;entryY=0.5;entryDx=0;entryDy=0;" parent="1" source="BPXdS7D87Gxcf3m_geHE-31" target="n1WuSb7ik74eGK0oQWNN-11" edge="1">
          <mxGeometry relative="1" as="geometry">
            <Array as="points">
              <mxPoint x="-680" y="470" />
              <mxPoint x="-680" y="615" />
            </Array>
          </mxGeometry>
        </mxCell>
        <mxCell id="h87LAmEmoWAyX9mOcRHI-1" style="edgeStyle=orthogonalEdgeStyle;rounded=0;orthogonalLoop=1;jettySize=auto;html=1;" edge="1" parent="1" source="BPXdS7D87Gxcf3m_geHE-31" target="n1WuSb7ik74eGK0oQWNN-7">
          <mxGeometry relative="1" as="geometry">
            <Array as="points">
              <mxPoint x="-680" y="470" />
              <mxPoint x="-680" y="475" />
            </Array>
          </mxGeometry>
        </mxCell>
        <mxCell id="BPXdS7D87Gxcf3m_geHE-31" value="User" style="shape=umlActor;verticalLabelPosition=bottom;verticalAlign=top;html=1;outlineConnect=0;" parent="1" vertex="1">
          <mxGeometry x="-810" y="440" width="30" height="60" as="geometry" />
        </mxCell>
        <mxCell id="BPXdS7D87Gxcf3m_geHE-33" value="Admin" style="shape=umlActor;verticalLabelPosition=bottom;verticalAlign=top;html=1;outlineConnect=0;" parent="1" vertex="1">
          <mxGeometry x="-810" y="750" width="30" height="60" as="geometry" />
        </mxCell>
        <mxCell id="BPXdS7D87Gxcf3m_geHE-34" value="" style="image;html=1;image=img/lib/clip_art/computers/Server_Rack_128x128.png" parent="1" vertex="1">
          <mxGeometry x="-90" y="550" width="80" height="80" as="geometry" />
        </mxCell>
        <mxCell id="BPXdS7D87Gxcf3m_geHE-35" value="Server" style="text;html=1;align=center;verticalAlign=middle;whiteSpace=wrap;rounded=0;" parent="1" vertex="1">
          <mxGeometry x="-80" y="630" width="60" height="30" as="geometry" />
        </mxCell>
        <mxCell id="BPXdS7D87Gxcf3m_geHE-41" style="edgeStyle=orthogonalEdgeStyle;rounded=0;orthogonalLoop=1;jettySize=auto;html=1;entryX=0.5;entryY=0;entryDx=0;entryDy=0;curved=0;" parent="1" source="BPXdS7D87Gxcf3m_geHE-37" target="BPXdS7D87Gxcf3m_geHE-34" edge="1">
          <mxGeometry relative="1" as="geometry" />
        </mxCell>
        <mxCell id="BPXdS7D87Gxcf3m_geHE-37" value="Book movie tickets" style="ellipse;whiteSpace=wrap;html=1;" parent="1" vertex="1">
          <mxGeometry x="-570" y="340" width="120" height="40" as="geometry" />
        </mxCell>
        <mxCell id="BPXdS7D87Gxcf3m_geHE-45" style="edgeStyle=orthogonalEdgeStyle;rounded=0;orthogonalLoop=1;jettySize=auto;html=1;entryX=0.25;entryY=0;entryDx=0;entryDy=0;curved=0;" parent="1" source="BPXdS7D87Gxcf3m_geHE-42" target="BPXdS7D87Gxcf3m_geHE-34" edge="1">
          <mxGeometry relative="1" as="geometry" />
        </mxCell>
        <mxCell id="BPXdS7D87Gxcf3m_geHE-42" value="Review&lt;span style=&quot;background-color: initial;&quot;&gt;&amp;nbsp;movies&lt;/span&gt;" style="ellipse;whiteSpace=wrap;html=1;" parent="1" vertex="1">
          <mxGeometry x="-570" y="390" width="120" height="40" as="geometry" />
        </mxCell>
        <mxCell id="n1WuSb7ik74eGK0oQWNN-10" style="edgeStyle=orthogonalEdgeStyle;rounded=0;orthogonalLoop=1;jettySize=auto;html=1;curved=0;" parent="1" source="n1WuSb7ik74eGK0oQWNN-7" target="BPXdS7D87Gxcf3m_geHE-34" edge="1">
          <mxGeometry relative="1" as="geometry" />
        </mxCell>
        <mxCell id="n1WuSb7ik74eGK0oQWNN-17" value="" style="rounded=0;whiteSpace=wrap;html=1;" parent="1" vertex="1">
          <mxGeometry x="-680.01" y="690" width="340" height="210" as="geometry" />
        </mxCell>
        <mxCell id="n1WuSb7ik74eGK0oQWNN-7" value="Delete account" style="ellipse;whiteSpace=wrap;html=1;" parent="1" vertex="1">
          <mxGeometry x="-570" y="450" width="120" height="50" as="geometry" />
        </mxCell>
        <mxCell id="n1WuSb7ik74eGK0oQWNN-15" value="" style="edgeStyle=orthogonalEdgeStyle;rounded=0;orthogonalLoop=1;jettySize=auto;html=1;curved=1;" parent="1" source="n1WuSb7ik74eGK0oQWNN-11" target="n1WuSb7ik74eGK0oQWNN-14" edge="1">
          <mxGeometry relative="1" as="geometry" />
        </mxCell>
        <mxCell id="n1WuSb7ik74eGK0oQWNN-23" value="" style="edgeStyle=orthogonalEdgeStyle;rounded=0;orthogonalLoop=1;jettySize=auto;html=1;" parent="1" source="n1WuSb7ik74eGK0oQWNN-11" target="n1WuSb7ik74eGK0oQWNN-22" edge="1">
          <mxGeometry relative="1" as="geometry" />
        </mxCell>
        <mxCell id="n1WuSb7ik74eGK0oQWNN-11" value="Sign in/Sign up" style="ellipse;whiteSpace=wrap;html=1;" parent="1" vertex="1">
          <mxGeometry x="-570" y="590" width="120" height="50" as="geometry" />
        </mxCell>
        <mxCell id="n1WuSb7ik74eGK0oQWNN-14" value="Password Update" style="ellipse;whiteSpace=wrap;html=1;" parent="1" vertex="1">
          <mxGeometry x="-570" y="510" width="120" height="40" as="geometry" />
        </mxCell>
        <mxCell id="n1WuSb7ik74eGK0oQWNN-1" value="View users" style="ellipse;whiteSpace=wrap;html=1;" parent="1" vertex="1">
          <mxGeometry x="-600" y="760" width="190" height="40" as="geometry" />
        </mxCell>
        <mxCell id="n1WuSb7ik74eGK0oQWNN-2" value="Remove users" style="ellipse;whiteSpace=wrap;html=1;" parent="1" vertex="1">
          <mxGeometry x="-577.5" y="830" width="145" height="30" as="geometry" />
        </mxCell>
        <mxCell id="n1WuSb7ik74eGK0oQWNN-6" style="edgeStyle=orthogonalEdgeStyle;rounded=0;orthogonalLoop=1;jettySize=auto;html=1;entryX=0.5;entryY=1;entryDx=0;entryDy=0;curved=0;" parent="1" source="n1WuSb7ik74eGK0oQWNN-1" target="BPXdS7D87Gxcf3m_geHE-34" edge="1">
          <mxGeometry relative="1" as="geometry" />
        </mxCell>
        <mxCell id="n1WuSb7ik74eGK0oQWNN-5" style="edgeStyle=orthogonalEdgeStyle;rounded=0;orthogonalLoop=1;jettySize=auto;html=1;entryX=0.5;entryY=0;entryDx=0;entryDy=0;" parent="1" source="n1WuSb7ik74eGK0oQWNN-1" target="n1WuSb7ik74eGK0oQWNN-2" edge="1">
          <mxGeometry relative="1" as="geometry" />
        </mxCell>
        <mxCell id="n1WuSb7ik74eGK0oQWNN-18" value="Admin Func&lt;span style=&quot;background-color: initial;&quot;&gt;tions&lt;/span&gt;" style="text;html=1;align=center;verticalAlign=middle;whiteSpace=wrap;rounded=0;" parent="1" vertex="1">
          <mxGeometry x="-570.01" y="690" width="120" height="30" as="geometry" />
        </mxCell>
        <mxCell id="n1WuSb7ik74eGK0oQWNN-21" style="edgeStyle=orthogonalEdgeStyle;rounded=0;orthogonalLoop=1;jettySize=auto;html=1;entryX=0;entryY=0.5;entryDx=0;entryDy=0;" parent="1" source="BPXdS7D87Gxcf3m_geHE-33" target="n1WuSb7ik74eGK0oQWNN-1" edge="1">
          <mxGeometry relative="1" as="geometry" />
        </mxCell>
        <mxCell id="n1WuSb7ik74eGK0oQWNN-22" value="Log out" style="ellipse;whiteSpace=wrap;html=1;" parent="1" vertex="1">
          <mxGeometry x="-400" y="610" width="120" height="50" as="geometry" />
        </mxCell>
        <mxCell id="n1WuSb7ik74eGK0oQWNN-30" style="edgeStyle=orthogonalEdgeStyle;rounded=0;orthogonalLoop=1;jettySize=auto;html=1;entryX=0.5;entryY=0;entryDx=0;entryDy=0;" parent="1" source="n1WuSb7ik74eGK0oQWNN-26" target="BPXdS7D87Gxcf3m_geHE-34" edge="1">
          <mxGeometry relative="1" as="geometry" />
        </mxCell>
        <mxCell id="n1WuSb7ik74eGK0oQWNN-26" value="Watchlist" style="ellipse;whiteSpace=wrap;html=1;" parent="1" vertex="1">
          <mxGeometry x="-570" y="290" width="120" height="40" as="geometry" />
        </mxCell>
        <mxCell id="h87LAmEmoWAyX9mOcRHI-3" style="edgeStyle=orthogonalEdgeStyle;rounded=0;orthogonalLoop=1;jettySize=auto;html=1;" edge="1" parent="1" source="n1WuSb7ik74eGK0oQWNN-11" target="BPXdS7D87Gxcf3m_geHE-34">
          <mxGeometry relative="1" as="geometry">
            <Array as="points">
              <mxPoint x="-270" y="600" />
              <mxPoint x="-270" y="577" />
            </Array>
          </mxGeometry>
        </mxCell>
      </root>
    </mxGraphModel>
  </diagram>
</mxfile>
